<?xml version="1.0" encoding="UTF-8" standalone="no"?>
<svg
   xmlns:dc="http://purl.org/dc/elements/1.1/"
   xmlns:cc="http://creativecommons.org/ns#"
   xmlns:rdf="http://www.w3.org/1999/02/22-rdf-syntax-ns#"
   xmlns:svg="http://www.w3.org/2000/svg"
   xmlns="http://www.w3.org/2000/svg"
   version="1.1"
   id="svg2"
   viewBox="0 0 150 150"
   height="150"
   width="150">
  <defs
     id="defs4" />
  <metadata
     id="metadata7">
    <rdf:RDF>
      <cc:Work
         rdf:about="">
        <dc:format>image/svg+xml</dc:format>
        <dc:type
           rdf:resource="http://purl.org/dc/dcmitype/StillImage" />
        <dc:title></dc:title>
      </cc:Work>
    </rdf:RDF>
  </metadata>
  <g
     transform="translate(-246.47722,-225.55995)"
     id="layer1">
    <path
       id="path4150"
       d="m 256.47722,245.55995 0,62.6 20,60 90,0 20,-60 0,-62.3"
       style="fill:#a45f54;fill-opacity:1;fill-rule:evenodd;stroke:#000000;stroke-width:4;stroke-linecap:butt;stroke-linejoin:miter;stroke-miterlimit:4;stroke-dasharray:none;stroke-opacity:1" />
    <ellipse
       ry="12.5"
       rx="65"
       cy="245.66011"
       cx="321.47723"
       id="path4148"
       style="fill:#bfbfbf;fill-opacity:1;stroke:#000000;stroke-width:4;stroke-miterlimit:4;stroke-dasharray:none;stroke-opacity:1" />
    <path
       id="path4154"
       d="m 291.47722,258.15995 c 0.58505,71.58695 3.60576,95.95141 15.05025,110.17678 l -30.05025,-0.17678 -20,-60 0,-60 z"
       style="fill:#804a42;fill-opacity:1;fill-rule:evenodd;stroke:none;stroke-width:1px;stroke-linecap:butt;stroke-linejoin:miter;stroke-opacity:1" />
    <path
       id="path4156"
       d="m 365.66961,254.80119 16.69149,-4.34314 4.11612,-7.2981 -16.41421,-6.76777 -45.53033,-2.17157 c 27.66629,6.07736 46.82929,13.15697 41.13693,20.58058 z"
       style="fill:#838383;fill-opacity:1;fill-rule:evenodd;stroke:none;stroke-width:1px;stroke-linecap:butt;stroke-linejoin:miter;stroke-opacity:1" />
    <ellipse
       style="fill:none;fill-opacity:1;stroke:#000000;stroke-width:4;stroke-miterlimit:4;stroke-dasharray:none;stroke-opacity:1"
       id="ellipse4166"
       cx="321.47723"
       cy="245.66011"
       rx="65"
       ry="12.5" />
    <path
       style="fill:none;fill-opacity:1;fill-rule:evenodd;stroke:#000000;stroke-width:4;stroke-linecap:butt;stroke-linejoin:miter;stroke-miterlimit:4;stroke-dasharray:none;stroke-opacity:1"
       d="m 256.47722,245.55995 0,62.6 20,60 90,0 20,-60 0,-62.3"
       id="path4168" />
  </g>
</svg>
